# xmcd
#
# Track frame offsets:
#	150
#	11902
#	26354
#	42684
#	55195
#
# Disc length: 1006 seconds
#
# Revision: 0
# Processed by: cddbd v1.5.1PL0 Copyright (c) Steve Scherf et al.
# Submitted via: dBpowerAMP V4.0
#
DISCID=3c03ec05
DTITLE=Jutta und Bernd - Daydreamers´ Memories
DYEAR=1900
DGENRE=
TTITLE0=Jamaica Farewell
TTITLE1=Love me Tender
TTITLE2=Banks of Ohio
TTITLE3=True Love
TTITLE4=Carlifornia Blue
EXTD=
EXTT0=
EXTT1=
EXTT2=
EXTT3=
EXTT4=
PLAYORDER=
